<svg xmlns="http://www.w3.org/2000/svg" viewBox="0 0 161.48 183.58"><defs><style>.cls-1{fill:#1d1d1b;}.cls-2,.cls-3,.cls-4{fill:#b0dce2;}.cls-2,.cls-3{stroke:#1d1d1b;stroke-width:1.5px;}.cls-2,.cls-5{stroke-miterlimit:10;}.cls-3{stroke-linejoin:round;}.cls-5{fill:none;stroke:#b0dce2;stroke-width:4px;}</style></defs><g id="Calque_15" data-name="Calque 15"><path class="cls-1" d="M110.68,230.18a7.8,7.8,0,0,1,3,4.38h-2.54a5.68,5.68,0,0,0-2.2-2.72,6.42,6.42,0,0,0-3.66-1,6.58,6.58,0,0,0-3.4.89,6.18,6.18,0,0,0-2.36,2.52,8.19,8.19,0,0,0-.86,3.85A8.31,8.31,0,0,0,99.5,242a6.15,6.15,0,0,0,2.42,2.53,7,7,0,0,0,3.54.89,6.77,6.77,0,0,0,3.15-.74,6.15,6.15,0,0,0,2.33-2.15,7.43,7.43,0,0,0,1.1-3.32h-7.31v-1.79h9.34v2.22a9.39,9.39,0,0,1-1.37,4,8.34,8.34,0,0,1-3.07,2.85,9,9,0,0,1-4.38,1,9.29,9.29,0,0,1-4.75-1.2A8.27,8.27,0,0,1,97.3,243a11.1,11.1,0,0,1,0-9.84,8.38,8.38,0,0,1,3.2-3.37,9.15,9.15,0,0,1,4.73-1.21A9,9,0,0,1,110.68,230.18Z" transform="translate(-96.15 -64.72)"/><path class="cls-1" d="M119.72,227.83v19.53h-2.4V227.83Z" transform="translate(-96.15 -64.72)"/><path class="cls-2" d="M133.87,233.58a6.4,6.4,0,0,1,2.59,2.59,8,8,0,0,1,.94,4,7.87,7.87,0,0,1-.94,3.94,6.43,6.43,0,0,1-2.59,2.58,8.26,8.26,0,0,1-7.46,0,6.52,6.52,0,0,1-2.6-2.58,7.77,7.77,0,0,1-1-3.94,7.87,7.87,0,0,1,1-4,6.48,6.48,0,0,1,2.6-2.59,8.26,8.26,0,0,1,7.46,0Z" transform="translate(-96.15 -64.72)"/><path class="cls-1" d="M152,233.58a6.19,6.19,0,0,1,2.36,2.59,8.66,8.66,0,0,1,.86,4,8.54,8.54,0,0,1-.86,3.94,6.22,6.22,0,0,1-2.36,2.58,6.68,6.68,0,0,1-3.44.89,5.92,5.92,0,0,1-3.57-1.06,5.43,5.43,0,0,1-2-2.82v3.7h-2.4V227.83h2.4v8.74a5.43,5.43,0,0,1,2-2.82,5.92,5.92,0,0,1,3.57-1.06A6.68,6.68,0,0,1,152,233.58Zm-6.65,1.89a4.42,4.42,0,0,0-1.77,1.86,5.87,5.87,0,0,0-.64,2.8,5.79,5.79,0,0,0,.64,2.78,4.54,4.54,0,0,0,1.77,1.86,4.92,4.92,0,0,0,2.53.66,4.67,4.67,0,0,0,3.57-1.41,6.32,6.32,0,0,0,0-7.78,4.64,4.64,0,0,0-3.57-1.42A5,5,0,0,0,145.32,235.47Z" transform="translate(-96.15 -64.72)"/><path class="cls-3" d="M167.84,233.74a5.43,5.43,0,0,1,2,2.83v-3.7h2.41v14.49h-2.41v-3.7a5.47,5.47,0,0,1-2,2.83,6,6,0,0,1-3.58,1,6.67,6.67,0,0,1-3.43-.89,6.22,6.22,0,0,1-2.36-2.58,8.54,8.54,0,0,1-.86-3.94,8.66,8.66,0,0,1,.86-4,6.19,6.19,0,0,1,2.36-2.59,6.67,6.67,0,0,1,3.43-.89A6,6,0,0,1,167.84,233.74Z" transform="translate(-96.15 -64.72)"/><path class="cls-1" d="M178.51,227.83v19.53h-2.4V227.83Z" transform="translate(-96.15 -64.72)"/><path class="cls-1" d="M191.29,230.71v6.36h7.07v1.84h-7.07v6.5h7.86v2H188.89V228.75h10.26v2Z" transform="translate(-96.15 -64.72)"/><path class="cls-1" d="M207.86,244.8l4.49-11.93h2.58l-5.67,14.49h-2.85l-5.68-14.49h2.59Z" transform="translate(-96.15 -64.72)"/><path class="cls-1" d="M230.5,240.63H218.92a5.07,5.07,0,0,0,1.41,3.72,4.59,4.59,0,0,0,3.26,1.24,4.73,4.73,0,0,0,2.92-.88,3.64,3.64,0,0,0,1.43-2.37h2.56a6,6,0,0,1-1.17,2.7,6.09,6.09,0,0,1-2.36,1.84,7.84,7.84,0,0,1-3.28.66,7.52,7.52,0,0,1-3.69-.89,6.39,6.39,0,0,1-2.52-2.58,8.08,8.08,0,0,1-.91-3.94,8.18,8.18,0,0,1,.91-4,6.35,6.35,0,0,1,2.52-2.59,7.52,7.52,0,0,1,3.69-.89,7.41,7.41,0,0,1,3.69.89,6.24,6.24,0,0,1,2.4,2.41,6.79,6.79,0,0,1,.83,3.32A7.16,7.16,0,0,1,230.5,240.63Zm-2.85-3.85a3.85,3.85,0,0,0-1.66-1.61,5.08,5.08,0,0,0-2.3-.53,4.75,4.75,0,0,0-3.32,1.23,4.9,4.9,0,0,0-1.45,3.6h9.26A4.9,4.9,0,0,0,227.65,236.78Z" transform="translate(-96.15 -64.72)"/><path class="cls-1" d="M245.47,234.26a6.48,6.48,0,0,1,1.55,4.68v8.42h-2.4v-8.21a4.61,4.61,0,0,0-1.11-3.32,3.94,3.94,0,0,0-3-1.17,4.13,4.13,0,0,0-3.17,1.28,5.33,5.33,0,0,0-1.19,3.74v7.68h-2.4V232.87h2.4v3.43a5,5,0,0,1,2-2.72,5.73,5.73,0,0,1,3.26-1A5.39,5.39,0,0,1,245.47,234.26Z" transform="translate(-96.15 -64.72)"/><path class="cls-1" d="M257.63,245.25v2.11h-1.79a4.57,4.57,0,0,1-3.31-1.06,4.75,4.75,0,0,1-1.1-3.53V235h-2.16v-2.09h2.16v-3.62h2.43v3.62h3.75V235h-3.75v7.86a2.72,2.72,0,0,0,.51,1.91,2.47,2.47,0,0,0,1.79.52Z" transform="translate(-96.15 -64.72)"/></g><g id="Calque_13" data-name="Calque 13"><circle class="cls-4" cx="98.41" cy="11.66" r="11.65"/><circle class="cls-4" cx="80.31" cy="67.38" r="6.92"/><circle class="cls-4" cx="34.08" cy="33.07" r="11.65"/><circle class="cls-4" cx="34.51" cy="100.03" r="11.65"/><circle class="cls-4" cx="137.88" cy="66.79" r="11.65"/><circle class="cls-4" cx="99.36" cy="121.1" r="11.65"/><polyline class="cls-5" points="80.31 67.39 137.88 66.79 99.36 121.1 34.51 100.03 34.08 33.07 98.42 11.66"/></g></svg>