<svg id="Calque_13" data-name="Calque 13" xmlns="http://www.w3.org/2000/svg" viewBox="0 0 176.19 176.19"><defs><style>.cls-1{fill:#d7d4eb;}.cls-2{fill:#1d1d1b;}.cls-3{fill:#858687;}.cls-4{fill:#f8fafb;}.cls-5{fill:#e4ce5a;}</style></defs><circle class="cls-1" cx="88.1" cy="88.1" r="87.1"/><path class="cls-2" d="M178,414.92a88.1,88.1,0,1,1,88.1-88.1A88.2,88.2,0,0,1,178,414.92Zm0-174.19a86.1,86.1,0,1,0,86.1,86.09A86.2,86.2,0,0,0,178,240.73Z" transform="translate(-89.85 -238.73)"/><polygon class="cls-3" points="32.24 54.12 150.26 128.76 98.28 71.6 77.86 106.62 32.24 54.12"/><polygon class="cls-4" points="32.24 54.12 98.28 71.6 77.86 106.62 150.26 128.76 32.24 54.12"/><path class="cls-2" d="M177.85,389.75c-1.74,0-3.49-.07-5.23-.21a61.93,61.93,0,0,1-48.87-31.41l1.75-1a59.9,59.9,0,0,0,47.29,30.39c1.37.12,2.76.19,4.14.21l-.16-58.22-46.7,26.22a55.27,55.27,0,0,0,43.11,27.15l-.17,2a57.26,57.26,0,0,1-45.18-29l-.49-.87,51.42-28.87.17,63.63h-1.08Z" transform="translate(-89.85 -238.73)"/><path class="cls-2" d="M176.76,329.53l.14-63.64h1c1.66,0,3.35.08,5,.22a61.9,61.9,0,0,1,48.91,31.47l-1.75,1a59.91,59.91,0,0,0-47.33-30.46c-1.27-.11-2.57-.17-3.85-.2l-.12,58.22L225.5,300a55.23,55.23,0,0,0-43.14-27.22l.16-2a57.23,57.23,0,0,1,45.22,29.1l.49.87Z" transform="translate(-89.85 -238.73)"/><path class="cls-5" d="M147.86,351l-11,6.35a50.43,50.43,0,0,0,34.89,20.53l.25-12.6A37.71,37.71,0,0,1,147.86,351Z" transform="translate(-89.85 -238.73)"/><path class="cls-5" d="M207.65,305.24a37.64,37.64,0,0,0-24-14.4l-.77,27.92Z" transform="translate(-89.85 -238.73)"/><polygon class="cls-2" points="54.23 31.9 57.05 42.7 61.75 43.75 62.8 39.04 54.23 31.9"/><polygon class="cls-2" points="134.4 90.2 123.86 86.53 120.37 89.86 123.69 93.35 134.4 90.2"/><rect class="cls-2" x="193.7" y="311.33" width="2" height="33.87" transform="translate(-228.36 275.65) rotate(-88.51)"/><rect class="cls-2" x="163.2" y="277.03" width="2" height="54.42" transform="translate(-219.72 -116.28) rotate(-29.92)"/><circle class="cls-4" cx="87.91" cy="89.1" r="4.46"/><path class="cls-2" d="M153.47,247.45c.91-.2,1.36-.29,2.27-.47a119,119,0,0,1,9.2,15c-1,.13-1.48.2-2.47.36a126.64,126.64,0,0,0-7.22-12,130.29,130.29,0,0,0-1.77,13.91c-1,.26-1.46.39-2.42.67A123.39,123.39,0,0,1,153.47,247.45Zm-1.13,11.11a81.29,81.29,0,0,1,9-1.89l.35,2.14a81.87,81.87,0,0,0-8.85,1.86Z" transform="translate(-89.85 -238.73)"/><path class="cls-2" d="M169.12,256.91a2.65,2.65,0,0,0,.8,1.83,2.46,2.46,0,0,0,1.86.54,2.55,2.55,0,0,0,1.77-.68,2.22,2.22,0,0,0,.59-1.71c.09,1,.14,1.45.24,2.42a3.44,3.44,0,0,1-1.14,1.49,3.49,3.49,0,0,1-2,.69,3.86,3.86,0,0,1-3.11-1,5.27,5.27,0,0,1-1.45-3.35c-.3-2.82-.45-4.22-.76-7,1-.11,1.55-.16,2.59-.25C168.77,252.69,168.88,254.1,169.12,256.91Zm4.78-7.35c1,0,1.55-.05,2.58-.06l.1,11.63c-.92,0-1.38,0-2.3.05C174.12,256.53,174.05,254.21,173.9,249.56Z" transform="translate(-89.85 -238.73)"/><path class="cls-2" d="M186.4,249.88c2.64.23,3.95.38,6.58.77l-.29,1.93c-2.57-.38-3.87-.53-6.45-.75Zm1.55-1.44a2.92,2.92,0,0,1,1.07-2.21,3.63,3.63,0,0,1,2.66-.46c.79.1,1.19.16,2,.28l-.32,2.14-1.89-.26a.71.71,0,0,0-.6.17,1,1,0,0,0-.27.61c-.65,5.25-1,7.88-1.62,13.13l-2.31-.26Z" transform="translate(-89.85 -238.73)"/><path class="cls-2" d="M196.82,246.56c1.07.19,1.61.3,2.67.51l-.45,2.24c-1-.21-1.57-.31-2.62-.5Zm-.82,4.59c1,.18,1.54.28,2.56.49L196.24,263c-.91-.18-1.37-.27-2.28-.43C194.77,258,195.18,255.73,196,251.15Z" transform="translate(-89.85 -238.73)"/><path class="cls-2" d="M202.73,261.48a1,1,0,0,0,0,.69.68.68,0,0,0,.47.36l1.08.31-.61,2.09-1.32-.38a2.72,2.72,0,0,1-1.79-1.3,3.32,3.32,0,0,1-.17-2.39c1.26-5.15,1.88-7.73,3.14-12.88,1.06.26,1.59.39,2.65.68C204.8,253.79,204.11,256.35,202.73,261.48Z" transform="translate(-89.85 -238.73)"/><path class="cls-2" d="M139.19,382.8c.72.42,1.08.62,1.81,1-3,5.51-4.53,8.28-7.47,13.85-.89-.48-1.33-.73-2.21-1.24C134.42,391,136,388.22,139.19,382.8Zm-5.38,12.63c1.39.78,2.09,1.14,3.51,1.85a4.19,4.19,0,0,0,3.06.45,3.14,3.14,0,0,0,2-1.92c.73-1.7,1.1-2.55,1.85-4.24a3.48,3.48,0,0,0,.19-2.71,3.74,3.74,0,0,0-2-1.94c-1.23-.6-1.84-.92-3-1.6l1-1.83c1.15.64,1.73.95,2.9,1.53a7.06,7.06,0,0,1,2.44,1.89,4.66,4.66,0,0,1,1,2.53,6.5,6.5,0,0,1-.53,3.08l-1.67,4.14a5.7,5.7,0,0,1-1.84,2.55,4.65,4.65,0,0,1-2.83.88,8.21,8.21,0,0,1-3.57-1c-1.42-.71-2.12-1.08-3.52-1.85Z" transform="translate(-89.85 -238.73)"/><path class="cls-2" d="M149.66,399.83a2.45,2.45,0,0,0,.06,1.93,2.42,2.42,0,0,0,1.57,1.15,2.57,2.57,0,0,0,1.89-.06,2.07,2.07,0,0,0,1-1.43c-.17.93-.26,1.4-.42,2.32a3.14,3.14,0,0,1-1.54,1,3.65,3.65,0,0,1-2.19,0,4,4,0,0,1-2.66-2.11,4.72,4.72,0,0,1,.06-3.56c.9-2.58,1.36-3.86,2.28-6.44.81.29,1.21.43,2,.69C150.91,395.92,150.49,397.22,149.66,399.83Zm6.33-5.27c.82.22,1.23.32,2,.51-1,4.37-1.53,6.56-2.51,10.95-.94-.21-1.41-.33-2.35-.58C154.28,401.08,154.84,398.91,156,394.56Z" transform="translate(-89.85 -238.73)"/><path class="cls-2" d="M166,396.46c1.91.24,2.87.32,4.78.43-.05.8-.07,1.2-.12,2-2-.11-2.94-.2-4.9-.44C165.82,397.65,165.87,397.26,166,396.46Zm.66,10.68a3.15,3.15,0,0,1-.45-2.28c.47-4.61.72-6.92,1.25-11.52.8.09,1.2.12,2,.19-.41,4.62-.59,6.93-.94,11.56a1.06,1.06,0,0,0,.12.65.6.6,0,0,0,.49.26l1.12.07c0,.84-.07,1.26-.11,2.1l-1.38-.09A2.71,2.71,0,0,1,166.63,407.14Z" transform="translate(-89.85 -238.73)"/><path class="cls-2" d="M175.49,407.84a3.9,3.9,0,0,1-1.79-1.73,5.62,5.62,0,0,1-.56-2.75c0-.5,0-.76,0-1.26a6.88,6.88,0,0,1,.62-2.84,4.1,4.1,0,0,1,1.57-1.79,4.79,4.79,0,0,1,2.4-.66,3.83,3.83,0,0,1,2.29.59,4.68,4.68,0,0,1,1.6,1.92,9.14,9.14,0,0,1,.79,3.14c0,.29,0,.44.07.73a68.73,68.73,0,0,1-7.73.34c0-.71,0-1.07,0-1.78,2.19,0,3.28,0,5.47-.17a4,4,0,0,0-.83-2.09,2,2,0,0,0-1.61-.69,2.37,2.37,0,0,0-1.87.87,3.59,3.59,0,0,0-.66,2.33v1.43a2.81,2.81,0,0,0,.78,2.14,2.94,2.94,0,0,0,2.22.69,3.75,3.75,0,0,0,2.57-1.17c.65.54,1,.81,1.64,1.33a6.17,6.17,0,0,1-1.89,1.39,5.76,5.76,0,0,1-2.23.55A6.18,6.18,0,0,1,175.49,407.84Z" transform="translate(-89.85 -238.73)"/><path class="cls-2" d="M184.75,396.4l2.05-.29c.68,4.44,1,6.66,1.76,11.1-.94.15-1.42.21-2.36.34C185.6,403.09,185.31,400.86,184.75,396.4Zm7.12,3.27a2.81,2.81,0,0,0-.94-1.69,2.1,2.1,0,0,0-1.69-.33,2.22,2.22,0,0,0-1.49.85,2.16,2.16,0,0,0-.32,1.68l-.55-2.1a4.19,4.19,0,0,1,1-1.76,3.09,3.09,0,0,1,1.62-.86,3.35,3.35,0,0,1,1.95.14,3.47,3.47,0,0,1,1.52,1.25,6.74,6.74,0,0,1,1,2.31c.64,2.66,1,4,1.64,6.63-.93.22-1.39.33-2.32.53C192.73,403.66,192.44,402.33,191.87,399.67ZM198.3,398a2.62,2.62,0,0,0-1.1-1.58,2.18,2.18,0,0,0-1.79-.17,1.94,1.94,0,0,0-1.32,1,2.64,2.64,0,0,0-.11,1.85c-.38-.8-.56-1.2-.93-2a4.49,4.49,0,0,1,.89-2,3.08,3.08,0,0,1,1.58-1.06,3.54,3.54,0,0,1,2,0,3.49,3.49,0,0,1,1.66,1.11,6.51,6.51,0,0,1,1.19,2.21c.87,2.59,1.31,3.88,2.2,6.47-.91.3-1.36.44-2.27.72C199.5,401.9,199.1,400.6,198.3,398Z" transform="translate(-89.85 -238.73)"/><path class="cls-2" d="M202,392.06c.77-.3,1.15-.45,1.92-.77,2.4,5.85,3.62,8.77,6.12,14.58-.93.39-1.4.57-2.34.93C205.32,400.92,204.18,398,202,392.06Zm7.1,8.87a2.86,2.86,0,0,1-1.69-.83c-.31-.89-.46-1.34-.76-2.23a2.64,2.64,0,0,0,.72,1,1.86,1.86,0,0,0,1,.4,2.56,2.56,0,0,0,1.27-.26A2.31,2.31,0,0,0,211,397.7a2.65,2.65,0,0,0-.26-2c-.43-.88-.64-1.32-1.06-2.2a2.9,2.9,0,0,0-1.36-1.47,2.11,2.11,0,0,0-1.78.07,2.51,2.51,0,0,0-.95.7,1.82,1.82,0,0,0-.37,1,2.6,2.6,0,0,0,.23,1.21c-.42-.76-.62-1.15-1-1.91a3.94,3.94,0,0,1,.58-1.9,3,3,0,0,1,1.35-1.19,3.6,3.6,0,0,1,2-.35,3.56,3.56,0,0,1,1.8.85,6.71,6.71,0,0,1,1.52,2l1.13,2.17a5.69,5.69,0,0,1,.71,2.38,3.28,3.28,0,0,1-.57,2,4.35,4.35,0,0,1-1.82,1.46A3.64,3.64,0,0,1,209.05,400.93Z" transform="translate(-89.85 -238.73)"/><path class="cls-2" d="M219.73,395.76a7.09,7.09,0,0,1-1.82.4,6.32,6.32,0,0,1-1.79-.1c.17-.84.25-1.25.4-2.08a7.11,7.11,0,0,0,2.18-.09,5.33,5.33,0,0,0,1.79-.71,4.12,4.12,0,0,0,1.53-1.5,1.3,1.3,0,0,0-.12-1.39,1,1,0,0,0-.77-.46,2.23,2.23,0,0,0-1,.22c-.34.15-.8.39-1.39.7l-.16.1-.17.09-.08,0-.08,0a8.61,8.61,0,0,1-1.78.72,2.49,2.49,0,0,1-1.55-.1,2.84,2.84,0,0,1-1.35-1.34,3.77,3.77,0,0,1-.56-2,3.06,3.06,0,0,1,.59-1.73,6.24,6.24,0,0,1,1.74-1.54,8.38,8.38,0,0,1,1.42-.74,7.38,7.38,0,0,1,3-.55c0,.82-.07,1.24-.13,2.07a8.12,8.12,0,0,0-1.8.26,4.9,4.9,0,0,0-1.45.63,2.93,2.93,0,0,0-1.19,1.2,1.33,1.33,0,0,0,.12,1.27.8.8,0,0,0,.63.42,1.89,1.89,0,0,0,.84-.16c.31-.13.74-.4,1.25-.64l.12-.07.13-.07,0,0a.09.09,0,0,1,.06,0,12,12,0,0,1,1.86-.88,3,3,0,0,1,1.71-.05,3.25,3.25,0,0,1,1.68,1.3,3.37,3.37,0,0,1,.74,1.95,3.31,3.31,0,0,1-.7,2,7.93,7.93,0,0,1-2.17,1.93A9.3,9.3,0,0,1,219.73,395.76Z" transform="translate(-89.85 -238.73)"/></svg>